<svg width="40" height="40" viewBox="0 0 40 40" fill="none" xmlns="http://www.w3.org/2000/svg">
<rect width="40" height="40" rx="20" fill="#F6F6F6"/>
<path fill-rule="evenodd" clip-rule="evenodd" d="M27.84 26.1932C27.84 29.4892 23.32 29.8702 19.921 29.8702L19.6778 29.8699C17.5122 29.8647 12 29.728 12 26.1732C12 22.9444 16.3384 22.5129 19.7115 22.4967L20.1642 22.4964C22.3296 22.5016 27.84 22.6383 27.84 26.1932ZM19.921 23.9962C15.66 23.9962 13.5 24.7282 13.5 26.1732C13.5 27.6312 15.66 28.3702 19.921 28.3702C24.181 28.3702 26.34 27.6382 26.34 26.1932C26.34 24.7352 24.181 23.9962 19.921 23.9962ZM19.921 9.99976C22.849 9.99976 25.23 12.3818 25.23 15.3098C25.23 18.2378 22.849 20.6188 19.921 20.6188H19.889C16.967 20.6098 14.6 18.2268 14.61 15.3068C14.61 12.3818 16.992 9.99976 19.921 9.99976ZM19.921 11.4278C17.78 11.4278 16.038 13.1688 16.038 15.3098C16.031 17.4438 17.76 19.1838 19.892 19.1918L19.921 19.9058V19.1918C22.061 19.1918 23.802 17.4498 23.802 15.3098C23.802 13.1688 22.061 11.4278 19.921 11.4278Z" fill="#9E9E9E"/>
</svg>
