<svg width="40" height="40" viewBox="0 0 40 40" fill="none" xmlns="http://www.w3.org/2000/svg">
<rect width="40" height="40" rx="20" fill="#F6F6F6"/>
<path d="M23.3409 16.0767H18.8706C18.4766 16.0767 18.1572 16.396 18.1572 16.79C18.1572 17.184 18.4766 17.5034 18.8706 17.5034H23.3409C23.7351 17.5034 24.0542 17.184 24.0542 16.79C24.0542 16.396 23.7349 16.0767 23.3409 16.0767Z" fill="#9E9E9E"/>
<path d="M25.0529 19.5244H18.8706C18.4766 19.5244 18.1572 19.8437 18.1572 20.2378C18.1572 20.6318 18.4766 20.9511 18.8706 20.9511H25.0529C25.4469 20.9511 25.7662 20.6318 25.7662 20.2378C25.7662 19.8437 25.4469 19.5244 25.0529 19.5244Z" fill="#9E9E9E"/>
<path d="M28.2866 11.6062H15.6605C15.2665 11.6062 14.9471 11.9255 14.9471 12.3196V19.0487H13.6869C12.2053 19.0487 11 20.2543 11 21.7357V25.7066C11 27.1882 12.2053 28.3935 13.6869 28.3935C13.8082 28.3935 13.9276 28.3854 14.0443 28.3698H25.8138C27.5705 28.3698 29 26.9404 29 25.1835V12.3196C29 11.9255 28.6807 11.6062 28.2866 11.6062ZM14.9472 25.7066C14.9472 26.3179 14.5094 26.8292 13.9309 26.943H13.687V26.9668C12.9919 26.9668 12.4267 26.4014 12.4267 25.7066V21.7357C12.4267 21.0409 12.9922 20.4754 13.687 20.4754H14.9472V25.7066H14.9472ZM27.5733 25.1835C27.5733 26.1372 26.7677 26.943 25.8138 26.943H16.0721C16.2649 26.5728 16.3738 26.1522 16.3738 25.7066V13.0329H27.5733V25.1835Z" fill="#9E9E9E"/>
<path d="M23.3409 22.7585H18.8706C18.4766 22.7585 18.1572 23.0779 18.1572 23.4719C18.1572 23.8659 18.4766 24.1853 18.8706 24.1853H23.3409C23.7351 24.1853 24.0542 23.8659 24.0542 23.4719C24.0542 23.0779 23.7349 22.7585 23.3409 22.7585Z" fill="#9E9E9E"/>
</svg>
