<svg width="40" height="40" viewBox="0 0 40 40" fill="none" xmlns="http://www.w3.org/2000/svg">
<rect width="40" height="40" rx="20" fill="#F6F6F6"/>
<path fill-rule="evenodd" clip-rule="evenodd" d="M21.434 10.653C20.554 10.116 19.446 10.116 18.566 10.653C17.982 11.01 17.297 11.429 16.912 11.664C16.787 11.741 16.649 11.795 16.505 11.824C15.883 11.948 14.543 12.216 13.461 12.432C12.175 12.69 11.25 13.818 11.25 15.129V18.818C11.25 23.965 14.753 28.451 19.746 29.699H19.747C19.913 29.741 20.087 29.741 20.253 29.699H20.254C25.247 28.451 28.75 23.965 28.75 18.818C28.75 17.417 28.75 16.102 28.75 15.129C28.75 13.818 27.825 12.69 26.539 12.432C25.457 12.216 24.117 11.948 23.495 11.824C23.351 11.795 23.213 11.741 23.088 11.664C22.703 11.429 22.018 11.01 21.434 10.653ZM20 28.215C24.267 27.096 27.25 23.238 27.25 18.818C27.25 17.417 27.25 16.102 27.25 15.129C27.25 14.533 26.829 14.02 26.245 13.903C25.163 13.687 23.823 13.419 23.201 13.294C22.884 13.231 22.582 13.113 22.306 12.944C21.921 12.709 21.235 12.29 20.652 11.933C20.252 11.689 19.748 11.689 19.348 11.933C18.765 12.29 18.079 12.709 17.694 12.944C17.418 13.113 17.116 13.231 16.799 13.294C16.177 13.419 14.837 13.687 13.755 13.903C13.171 14.02 12.75 14.533 12.75 15.129V18.818C12.75 23.238 15.733 27.096 20 28.215Z" fill="#9E9E9E"/>
<path fill-rule="evenodd" clip-rule="evenodd" d="M18.9997 20.939L22.4698 17.47C22.7618 17.177 23.2378 17.177 23.5298 17.47C23.8228 17.762 23.8228 18.238 23.5298 18.53L19.5297 22.53C19.2367 22.823 18.7628 22.823 18.4698 22.53L16.9698 21.03C16.6767 20.738 16.6767 20.262 16.9698 19.97C17.2618 19.677 17.7377 19.677 18.0297 19.97L18.9997 20.939Z" fill="#9E9E9E"/>
</svg>
