<svg width="40" height="40" viewBox="0 0 40 40" fill="none" xmlns="http://www.w3.org/2000/svg">
<rect width="40" height="40" rx="20" fill="#F6F6F6"/>
<path d="M24.75 22C24.5511 22 24.3603 22.079 24.2197 22.2197C24.079 22.3603 24 22.5511 24 22.75V27.25C23.9998 27.4489 23.9207 27.6395 23.7801 27.7801C23.6395 27.9208 23.4489 27.9998 23.25 28H14.25C14.0511 28 13.8603 27.921 13.7197 27.7803C13.579 27.6397 13.5 27.4489 13.5 27.25V12.25C13.5 12.0511 13.579 11.8603 13.7197 11.7197C13.8603 11.579 14.0511 11.5 14.25 11.5H23.25C23.4489 11.5002 23.6395 11.5793 23.7801 11.7199C23.9207 11.8605 23.9998 12.0512 24 12.25V16.75C24 16.9489 24.079 17.1397 24.2197 17.2803C24.3603 17.421 24.5511 17.5 24.75 17.5C24.9489 17.5 25.1397 17.421 25.2803 17.2803C25.421 17.1397 25.5 16.9489 25.5 16.75V12.25C25.4993 11.6535 25.2621 11.0816 24.8403 10.6597C24.4185 10.2379 23.8465 10.0007 23.25 10H14.25C13.9544 9.9992 13.6616 10.0571 13.3885 10.1702C13.1155 10.2834 12.8676 10.4496 12.6592 10.6592C12.2386 11.082 12.0017 11.6536 12 12.25V27.25C12.0017 27.8464 12.2386 28.418 12.6592 28.8408C12.8676 29.0505 13.1155 29.2167 13.3885 29.3298C13.6616 29.443 13.9544 29.5008 14.25 29.5H23.25C23.8465 29.4994 24.4185 29.2621 24.8403 28.8403C25.2621 28.4185 25.4993 27.8465 25.5 27.25V22.75C25.5 22.5511 25.421 22.3603 25.2803 22.2197C25.1397 22.079 24.9489 22 24.75 22Z" fill="#9E9E9E"/>
<path d="M31.4423 20.0365C31.4987 19.8994 31.5135 19.7486 31.4846 19.6032C31.4556 19.4577 31.3844 19.3241 31.2798 19.219L28.2803 16.2198C28.1388 16.0832 27.9493 16.0076 27.7527 16.0093C27.5561 16.011 27.3679 16.0899 27.2289 16.2289C27.0898 16.368 27.011 16.5561 27.0092 16.7528C27.0075 16.9494 27.0831 17.1389 27.2197 17.2803L28.9394 19.0001H17.25C17.0511 19.0001 16.8603 19.0791 16.7197 19.2197C16.579 19.3604 16.5 19.5511 16.5 19.7501C16.5 19.949 16.579 20.1397 16.7197 20.2804C16.8603 20.421 17.0511 20.5001 17.25 20.5001H28.9394L27.2197 22.2198C27.1481 22.289 27.091 22.3718 27.0517 22.4633C27.0124 22.5548 26.9917 22.6532 26.9908 22.7528C26.9899 22.8523 27.0089 22.9511 27.0466 23.0433C27.0843 23.1354 27.14 23.2192 27.2105 23.2896C27.2809 23.36 27.3646 23.4157 27.4568 23.4534C27.549 23.4911 27.6477 23.5101 27.7473 23.5092C27.8469 23.5084 27.9453 23.4877 28.0368 23.4484C28.1283 23.4091 28.2111 23.3519 28.2803 23.2803L31.2798 20.2808C31.3495 20.2109 31.4047 20.1278 31.4423 20.0365Z" fill="#9E9E9E"/>
</svg>
