<svg width="40" height="40" viewBox="0 0 40 40" fill="none" xmlns="http://www.w3.org/2000/svg">
<rect width="40" height="40" rx="20" fill="#F6F6F6"/>
<path fill-rule="evenodd" clip-rule="evenodd" d="M28.4174 11.2198C28.7104 11.5128 28.7104 11.9878 28.4174 12.2808L12.6434 28.0537C12.4974 28.2007 12.3054 28.2738 12.1134 28.2738C11.9214 28.2738 11.7294 28.2007 11.5834 28.0537C11.2904 27.7607 11.2904 27.2867 11.5834 26.9937L13.5553 25.023C12.1415 23.7298 10.9422 21.9866 10.0615 19.934C9.9795 19.744 9.9795 19.53 10.0615 19.341C11.0825 16.9769 12.5205 15.0199 14.2205 13.683C17.5133 11.077 21.8423 10.9387 25.2687 13.3083L27.3574 11.2198C27.6504 10.9268 28.1244 10.9268 28.4174 11.2198ZM28.0472 16.0408C28.7712 17.0017 29.4072 18.1128 29.9382 19.3387C30.0212 19.5287 30.0212 19.7448 29.9382 19.9338C27.8422 24.7908 24.1272 27.6898 20.0002 27.6898C19.0632 27.6898 18.1312 27.5378 17.2312 27.2388C16.8382 27.1077 16.6252 26.6827 16.7562 26.2898C16.8872 25.8958 17.3102 25.6867 17.7052 25.8147C18.4522 26.0637 19.2242 26.1897 20.0002 26.1897C23.4282 26.1897 26.5612 23.7478 28.4302 19.6368C27.9742 18.6378 27.4432 17.7327 26.8492 16.9427C26.6002 16.6118 26.6662 16.1407 26.9972 15.8917C27.3272 15.6427 27.7982 15.7108 28.0472 16.0408ZM15.1495 14.8609C13.7135 15.991 12.4805 17.637 11.5705 19.639C12.3639 21.3914 13.4063 22.8693 14.6171 23.9607L16.7549 21.8231C16.3199 21.1832 16.0859 20.4287 16.0859 19.6385C16.0859 17.4785 17.8419 15.7215 19.9999 15.7215C20.7829 15.7215 21.5488 15.96 22.1865 16.3909L24.188 14.3895C21.3352 12.5452 17.863 12.7135 15.1495 14.8609ZM23.2375 19.4615C23.6455 19.5345 23.9165 19.9246 23.8435 20.3326C23.5565 21.9256 22.2945 23.1896 20.7025 23.4796C20.6575 23.4876 20.6115 23.4916 20.5675 23.4916C20.2125 23.4916 19.8965 23.2376 19.8305 22.8756C19.7565 22.4686 20.0265 22.0775 20.4345 22.0035C21.4145 21.8255 22.1905 21.0476 22.3665 20.0666C22.4405 19.6596 22.8305 19.3916 23.2375 19.4615ZM19.9999 17.2215C18.6689 17.2215 17.5859 18.3055 17.5859 19.6385C17.5859 20.0239 17.6766 20.3959 17.8477 20.73L21.0933 17.484C20.7591 17.3137 20.3833 17.2215 19.9999 17.2215Z" fill="#9E9E9E"/>
</svg>
