<svg width="1024" height="1024" viewBox="0 0 1024 1024" fill="none" xmlns="http://www.w3.org/2000/svg">
<path d="M512 1024C794.77 1024 1024 794.77 1024 512C1024 229.23 794.77 0 512 0C229.23 0 0 229.23 0 512C0 794.77 229.23 1024 512 1024Z" fill="url(#paint0_linear_1_25)"/>
<g filter="url(#filter0_i_1_25)">
<path d="M512.001 771.456C669.097 771.456 796.447 649.699 796.447 499.505C796.447 349.31 669.097 227.553 512.001 227.553C354.908 227.553 227.558 349.31 227.558 499.505C227.558 649.699 354.908 771.456 512.001 771.456Z" fill="#212121"/>
<path d="M513.988 725.345C645.905 725.345 752.842 627.681 752.842 507.205C752.842 386.731 645.905 289.067 513.988 289.067C382.074 289.067 275.135 386.731 275.135 507.205C275.135 627.681 382.074 725.345 513.988 725.345Z" fill="white"/>
<path d="M790.497 460.099C790.497 411.676 761.461 365.235 709.774 330.994C658.09 296.753 587.987 277.518 514.891 277.518C441.797 277.518 371.699 296.753 320.012 330.994C268.328 365.235 233.5 411.676 233.5 460.099H514.891H790.497Z" fill="#212121"/>
<path d="M512.994 623.634C583.058 623.634 639.856 574.423 639.856 513.715C639.856 453.01 583.058 403.799 512.994 403.799C442.931 403.799 386.135 453.01 386.135 513.715C386.135 574.423 442.931 623.634 512.994 623.634Z" fill="#212121"/>
<path d="M588.377 526.415C590.36 517.766 580.443 508.94 566.316 502.632C552.188 496.325 533.032 492.78 513.052 492.78C493.076 492.78 473.915 496.325 459.792 502.632C445.665 508.94 437.731 517.494 437.731 526.415H513.052H588.377Z" fill="#FD5523"/>
<path d="M588.375 521.608C589.365 528.335 586.425 535.672 582.64 542.202C578.856 548.73 573.306 554.663 566.314 559.659C559.317 564.657 551.015 568.621 541.873 571.325C532.738 574.029 522.941 575.421 513.05 575.421C503.16 575.421 493.363 574.029 484.226 571.325C475.087 568.621 466.785 564.657 459.788 559.659C452.793 554.663 447.246 548.73 443.461 542.202C439.674 535.672 435.746 527.374 438.719 520.647L513.05 521.608H588.375Z" fill="#FD5523"/>
<path d="M344.306 545.908C381.426 545.908 411.516 516.805 411.516 480.902C411.516 445.001 381.426 415.898 344.306 415.898C307.186 415.898 277.096 445.001 277.096 480.902C277.096 516.805 307.186 545.908 344.306 545.908Z" fill="white"/>
<path d="M344.312 506.333C360.874 506.333 374.3 493.81 374.3 478.366C374.3 462.919 360.874 450.397 344.312 450.397C327.753 450.397 314.327 462.919 314.327 478.366C314.327 493.81 327.753 506.333 344.312 506.333Z" fill="#212121"/>
<path d="M344.332 554.275C363.177 554.275 378.453 541.753 378.453 526.307C378.453 510.86 363.177 498.339 344.332 498.339C325.486 498.339 310.209 510.86 310.209 526.307C310.209 541.753 325.486 554.275 344.332 554.275Z" fill="white"/>
<path d="M683.267 545.908C720.386 545.908 750.477 516.805 750.477 480.902C750.477 445.001 720.386 415.898 683.267 415.898C646.148 415.898 616.058 445.001 616.058 480.902C616.058 516.805 646.148 545.908 683.267 545.908Z" fill="white"/>
<path d="M683.274 506.333C699.835 506.333 713.261 493.81 713.261 478.366C713.261 462.919 699.835 450.397 683.274 450.397C666.715 450.397 653.288 462.919 653.288 478.366C653.288 493.81 666.715 506.333 683.274 506.333Z" fill="#212121"/>
<path d="M683.274 554.275C702.12 554.275 717.397 541.753 717.397 526.307C717.397 510.86 702.12 498.339 683.274 498.339C664.429 498.339 649.151 510.86 649.151 526.307C649.151 541.753 664.429 554.275 683.274 554.275Z" fill="white"/>
<path d="M527.722 706.475H496.76C478.509 706.54 463.745 717.538 463.692 731.112V754.135C463.745 767.722 478.548 778.732 496.821 778.77H527.783C546.034 778.707 560.797 767.707 560.85 754.135V731.112C560.797 717.521 545.994 706.515 527.722 706.475Z" fill="#37966F"/>
<path d="M663.603 702.639C663.497 701.669 663.259 700.7 662.89 699.764C662.439 698.52 661.776 697.328 660.911 696.218C655.451 689.178 643.348 686.767 633.886 690.828H633.882L586.819 710.951L566.786 719.585C568.808 723.239 569.858 727.146 569.882 731.099V754.119C569.858 758.071 568.808 761.978 566.786 765.633L586.758 774.197L632.33 793.767C641.325 798.446 653.72 796.816 660.013 790.126C662.357 787.639 663.607 784.672 663.603 781.635V703.468C663.643 703.193 663.643 702.915 663.603 702.639Z" fill="#37966F"/>
<path d="M457.734 718.97L438.757 710.82L392.005 690.791C382.543 686.73 370.442 689.138 364.979 696.172C364.977 696.176 364.978 696.176 364.976 696.176C364.111 697.291 363.443 698.482 362.994 699.723C362.65 700.694 362.443 701.69 362.374 702.693C362.67 701.611 363.54 700.662 364.79 700.068L362.374 702.693C362.337 702.968 362.337 703.246 362.374 703.524V781.615C362.388 789.794 371.311 796.414 382.305 796.404C386.308 796.4 390.217 795.5 393.522 793.821L439.686 773.927L457.705 766.192C455.515 762.38 454.388 758.272 454.392 754.127V731.103C454.385 726.934 455.523 722.804 457.734 718.97Z" fill="#37966F"/>
</g>
<defs>
<filter id="filter0_i_1_25" x="227.558" y="227.553" width="568.889" height="568.884" filterUnits="userSpaceOnUse" color-interpolation-filters="sRGB">
<feFlood flood-opacity="0" result="BackgroundImageFix"/>
<feBlend mode="normal" in="SourceGraphic" in2="BackgroundImageFix" result="shape"/>
<feColorMatrix in="SourceAlpha" type="matrix" values="0 0 0 0 0 0 0 0 0 0 0 0 0 0 0 0 0 0 127 0" result="hardAlpha"/>
<feOffset/>
<feGaussianBlur stdDeviation="2.5"/>
<feComposite in2="hardAlpha" operator="arithmetic" k2="-1" k3="1"/>
<feColorMatrix type="matrix" values="0 0 0 0 0.229167 0 0 0 0 0.229167 0 0 0 0 0.229167 0 0 0 0.54 0"/>
<feBlend mode="normal" in2="shape" result="effect1_innerShadow_1_25"/>
</filter>
<linearGradient id="paint0_linear_1_25" x1="-96" y1="202.665" x2="1088" y2="831.998" gradientUnits="userSpaceOnUse">
<stop stop-color="#37966F"/>
<stop offset="1" stop-color="#17DA8A"/>
</linearGradient>
</defs>
</svg>
