<svg width="24" height="20" viewBox="0 0 24 20" fill="none" xmlns="http://www.w3.org/2000/svg">
<path d="M23.2969 13.9844H22.9929C22.8253 11.3066 21.7032 8.81223 19.7892 6.89828C18.3307 5.43977 16.535 4.44138 14.5781 3.97431V3.4375C14.5781 2.01592 13.4216 0.859375 12 0.859375C10.5784 0.859375 9.42188 2.01592 9.42188 3.4375V3.97431C7.46498 4.44142 5.6693 5.43977 4.21078 6.89828C2.29683 8.81223 1.17473 11.3066 1.00711 13.9844H0.703125C0.314812 13.9844 0 14.2992 0 14.6875C0 17.143 1.99767 19.1406 4.45312 19.1406H19.4531C20.6438 19.1406 21.7758 18.6804 22.6403 17.8447C23.5171 16.9972 24 15.8759 24 14.6875C24 14.2992 23.6852 13.9844 23.2969 13.9844ZM10.8281 3.4375C10.8281 2.79133 11.3538 2.26562 12 2.26562C12.6462 2.26562 13.1719 2.79133 13.1719 3.4375V3.73375C12.7852 3.69311 12.3943 3.67188 12 3.67188C11.6057 3.67188 11.2148 3.69311 10.8281 3.73375V3.4375ZM12 5.07812C17.0621 5.07812 21.2222 9.01277 21.5835 13.9844H2.41645C2.77777 9.01277 6.93788 5.07812 12 5.07812ZM19.4531 17.7344H4.45312C3.01495 17.7344 1.80633 16.7329 1.48814 15.3906H22.5055C22.1684 16.7166 20.9071 17.7344 19.4531 17.7344Z" fill="#9E9E9E"/>
</svg>
