<svg width="24" height="24" viewBox="0 0 24 24" fill="none" xmlns="http://www.w3.org/2000/svg">
<path d="M6 3H3V6H6V3Z" fill="#9E9E9E"/>
<path d="M9 0H0V9H9V0ZM7.5 7.5H1.5V1.5H7.5V7.5Z" fill="#9E9E9E"/>
<path d="M21 3H18V6H21V3Z" fill="#9E9E9E"/>
<path d="M15 0V9H24V0H15ZM22.5 7.5H16.5V1.5H22.5V7.5Z" fill="#9E9E9E"/>
<path d="M6 18H3V21H6V18Z" fill="#9E9E9E"/>
<path d="M0.000976562 24H8.99952V15H0.000976562V24ZM1.50098 16.5H7.50098V22.5015H1.50098V16.5Z" fill="#9E9E9E"/>
<path d="M12.0015 16.5H10.5V18H12.0015V21H13.5015V15H12.0015V16.5Z" fill="#9E9E9E"/>
<path d="M21 14.9985H19.4985V16.4985H21V19.5H19.4985V16.4985H16.5V13.5H18V14.9985H19.4985V13.5H21V12H19.4985V10.5H18V12H16.5V10.5H13.5V7.5H12V9H10.5V10.5H12V13.5H15V21H16.5V22.5H15V24H18V22.5H19.4985V21H21V22.5H19.6875V24H24V21H22.5V18H24V16.4985H22.5V13.5H21V14.9985ZM18 19.5H16.5V18H18V19.5Z" fill="#9E9E9E"/>
<path d="M13.5 4.5V0H10.5V1.5H12V3H10.5V7.5H12V4.5H13.5Z" fill="#9E9E9E"/>
<path d="M7.49953 12H6.00098V10.5H4.50098V12H5.99953V13.5H8.99953V12H10.4995V10.5H7.49953V12Z" fill="#9E9E9E"/>
<path d="M21 12H22.5V13.5H24V10.5H21V12Z" fill="#9E9E9E"/>
<path d="M12 13.5H10.5V15H12V13.5Z" fill="#9E9E9E"/>
<path d="M12 21H10.5V22.5H12V21Z" fill="#9E9E9E"/>
<path d="M13.5 22.5H12V24H13.5V22.5Z" fill="#9E9E9E"/>
<path d="M4.5 12H3V10.5H0V13.5H4.5V12Z" fill="#9E9E9E"/>
</svg>
